<?xml version="1.0" encoding="UTF-8"?>
<svg version="1.1" xmlns="http://www.w3.org/2000/svg" width="626" height="626">
<path d="M0 0 C0.69270996 0.16628906 1.38541992 0.33257812 2.09912109 0.50390625 C24.47069569 6.0391412 44.72712771 16.77428295 62 32 C62.96292969 32.81855469 63.92585937 33.63710937 64.91796875 34.48046875 C77.50749393 45.38157896 87.00886916 58.46461138 95 73 C95.62648438 74.11761719 96.25296875 75.23523438 96.8984375 76.38671875 C114.24086496 108.98896775 116.46122407 148.721762 106.4375 183.875 C99.48520447 206.60836161 87.52429639 226.0732494 71 243 C70.16210938 243.91136719 69.32421875 244.82273437 68.4609375 245.76171875 C45.52987304 270.04370695 10.67292332 285.53925032 -22.65551758 287.12646484 C-62.13105346 288.17310153 -97.73993177 277.91604539 -128 252 C-128.90363281 251.23042969 -129.80726563 250.46085938 -130.73828125 249.66796875 C-137.23828676 243.95911191 -142.75530182 237.87036109 -148 231 C-148.67804688 230.12601563 -149.35609375 229.25203125 -150.0546875 228.3515625 C-173.42453669 197.34331902 -182.29795205 158.40269179 -177.18017578 120.04638672 C-176.58527806 116.33084357 -175.85209107 112.66475317 -175 109 C-174.83902832 108.30084473 -174.67805664 107.60168945 -174.51220703 106.88134766 C-170.61494987 90.68957319 -163.73576902 74.53250682 -154 61 C-153.33613281 60.05382812 -152.67226562 59.10765625 -151.98828125 58.1328125 C-127.83105657 24.73772631 -92.93194844 3.99647765 -52.3671875 -2.58984375 C-35.32600151 -4.55179491 -16.67456951 -4.11697755 0 0 Z M-114 45 C-114.89332031 45.7528125 -115.78664062 46.505625 -116.70703125 47.28125 C-139.51805404 67.18395498 -155.28875595 95.76922728 -158.75390625 126.0625 C-160.88890037 160.22240595 -154.36825194 193.94085677 -131.671875 220.75 C-130.13544601 222.45940443 -128.58271803 224.15434272 -127.01171875 225.83203125 C-125 228 -125 228 -122.625 231.0625 C-103.07424555 252.94072521 -71.67492664 265.64684774 -43 268 C-10.00645666 269.60648069 24.01824725 260.32261075 49 238 C58.59520434 229.24112959 67.40795918 220.27277986 74 209 C74.40943848 208.30567871 74.81887695 207.61135742 75.24072266 206.89599609 C83.48732721 192.67421479 89.70691862 177.37915274 92 161 C92.10957031 160.29101562 92.21914063 159.58203125 92.33203125 158.8515625 C96.46853402 126.53168753 87.98896181 93.42287693 69 67 C66.15196009 63.50280814 63.1195532 60.25307493 60 57 C59.03397599 55.81874785 58.0749471 54.63171921 57.125 53.4375 C38.39265753 31.59160742 7.12424231 18.56470842 -21 16 C-55.27955787 14.00837625 -87.4910808 22.63199341 -114 45 Z " fill="#080708" transform="translate(346,171)"/>
<path d="M0 0 C13.3340625 -0.12375 13.3340625 -0.12375 26.9375 -0.25 C31.12167603 -0.30462402 31.12167603 -0.30462402 35.39038086 -0.36035156 C37.62352735 -0.37204384 39.85668242 -0.38223439 42.08984375 -0.390625 C43.80210144 -0.4213208 43.80210144 -0.4213208 45.5489502 -0.45263672 C53.99061506 -0.45629468 59.75647067 1.2652811 66.8125 5.8125 C71.88074926 10.88074926 74.11428826 16.64775248 74.25 23.75 C74.16256061 30.34681607 72.73588207 34.96774782 68.4375 40 C66 42 66 42 64 42 C64 42.66 64 43.32 64 44 C65.051875 44.2784375 65.051875 44.2784375 66.125 44.5625 C71.23591112 47.11795556 74.20566801 51.08638203 76.375 56.3125 C77.94106717 65.5522963 77.60303506 73.7542909 72.18359375 81.64453125 C64.08715973 91.53695422 56.47566852 92.75243315 44 94 C29.48 94 14.96 94 0 94 C0 62.98 0 31.96 0 0 Z M19 16 C19 22.6 19 29.2 19 36 C23.0209236 36.09219952 27.03913024 36.17171538 31.06054688 36.21972656 C32.42623368 36.23975319 33.79183569 36.26698332 35.15722656 36.30175781 C37.12787102 36.35066432 39.09915983 36.37091347 41.0703125 36.390625 C42.25383301 36.41157227 43.43735352 36.43251953 44.65673828 36.45410156 C48.69919711 35.90503092 50.84801697 34.54201649 54 32 C54.99294691 29.82393528 54.99294691 29.82393528 55 27.5 C55.061875 26.7471875 55.12375 25.994375 55.1875 25.21875 C54.97381829 22.6901831 54.32953729 21.14879443 53 19 C48.3743074 15.86113716 42.58198728 15.87321512 37.1640625 15.90234375 C35.56884766 15.90717773 35.56884766 15.90717773 33.94140625 15.91210938 C32.29978516 15.92467773 32.29978516 15.92467773 30.625 15.9375 C29.50738281 15.94201172 28.38976562 15.94652344 27.23828125 15.95117188 C24.49216434 15.96290742 21.74607515 15.98084134 19 16 Z M19 52 C19 60.25 19 68.5 19 77 C22.96 77.04125 26.92 77.0825 31 77.125 C32.84851563 77.15231201 32.84851563 77.15231201 34.734375 77.18017578 C45.30339289 77.43787615 45.30339289 77.43787615 54.4375 72.875 C56.89249497 68.35780926 57.51672997 64.27361187 56.375 59.25 C54.60262401 56.34974839 52.86917033 54.82583566 50 53 C45.94369038 52.12400445 42.08676566 51.88099605 37.9453125 51.90234375 C36.44508545 51.90609009 36.44508545 51.90609009 34.91455078 51.90991211 C33.66399902 51.91901611 32.41344727 51.92812012 31.125 51.9375 C27.12375 51.958125 23.1225 51.97875 19 52 Z " fill="#0A090A" transform="translate(237,265)"/>
<path d="M0 0 C8.71876525 6.18593959 13.31153653 13.79888922 15.53515625 24.17578125 C15.85582294 28.66511498 15.78515625 33.17500971 15.78515625 37.67578125 C-0.71484375 38.00578125 -17.21484375 38.33578125 -34.21484375 38.67578125 C-32.14260341 46.67363385 -32.14260341 46.67363385 -27.21484375 51.67578125 C-21.78249313 53.9126315 -16.85491425 54.16501335 -11.21484375 52.67578125 C-8.39491658 50.85457829 -6.71138897 49.66887169 -5.21484375 46.67578125 C1.38515625 46.67578125 7.98515625 46.67578125 14.78515625 46.67578125 C12.4341947 54.90414668 8.75017808 60.15495778 1.73046875 65.1328125 C-7.93681007 70.31587162 -19.44379767 71.06798036 -29.984375 68.4375 C-38.52792531 65.5198252 -45.29495479 60.56225077 -50.1015625 52.96875 C-55.11643646 42.63986925 -55.24752924 27.11492368 -51.52734375 16.30078125 C-50.40234375 13.828125 -50.40234375 13.828125 -49.21484375 11.67578125 C-48.86421875 11.01707031 -48.51359375 10.35835938 -48.15234375 9.6796875 C-43.9155191 2.83898103 -36.40121684 -1.6208784 -28.79296875 -3.85546875 C-19.05559859 -5.62589969 -8.62706401 -5.15798007 0 0 Z M-29.21484375 13.67578125 C-32.91778456 17.84158966 -33.26548951 19.97965579 -34.21484375 25.67578125 C-24.31484375 25.67578125 -14.41484375 25.67578125 -4.21484375 25.67578125 C-5.08354247 18.56392436 -5.08354247 18.56392436 -9.21484375 13.67578125 C-15.44783067 9.37716958 -22.83501836 10.26991702 -29.21484375 13.67578125 Z " fill="#0A090A" transform="translate(372.21484375,291.32421875)"/>
<path d="M0 0 C5.82071622 -0.02464638 11.64140234 -0.0428343 17.4621582 -0.05493164 C19.44393441 -0.05997267 21.42570689 -0.06680538 23.4074707 -0.07543945 C26.24952109 -0.08751515 29.09152247 -0.09323045 31.93359375 -0.09765625 C32.82525742 -0.10281754 33.71692108 -0.10797882 34.63560486 -0.11329651 C36.75740601 -0.11349177 38.8791078 -0.0621003 41 0 C42 1 42 1 42 10 C28.14 10 14.28 10 0 10 C0 6.7 0 3.4 0 0 Z " fill="#292829" transform="translate(331,270)"/>
<path d="M0 0 C-7.69565547 1.30434839 -14.35767685 0.42924436 -22 -1 C-22 -1.66 -22 -2.32 -22 -3 C-26.19569364 -2.93017465 -30.39050241 -2.84177998 -34.58544922 -2.73754883 C-36.0068944 -2.70468212 -37.42845814 -2.67653677 -38.85009766 -2.65356445 C-47.00046281 -2.51839608 -54.58192343 -1.99057787 -62.45800781 0.36791992 C-65.07083316 1.01761305 -67.31919598 1.11255514 -70 1 C-70 0.01 -70 -0.98 -70 -2 C-50.24987794 -6.49596275 -18.42484496 -10.75562015 0 0 Z " fill="#403E40" transform="translate(350,173)"/>
<path d="M0 0 C0.33 0 0.66 0 1 0 C1.19401633 1.81181405 1.38004375 3.62448532 1.5625 5.4375 C1.66691406 6.44683594 1.77132812 7.45617187 1.87890625 8.49609375 C1.93884766 9.73552734 1.93884766 9.73552734 2 11 C1.67 11.33 1.34 11.66 1 12 C0.99541595 14.49066573 1.0537678 16.95056218 1.15625 19.4375 C1.20968231 20.98827963 1.2630661 22.53906094 1.31640625 24.08984375 C1.40671718 26.53409682 1.49916274 28.97825317 1.59326172 31.42236328 C2.22659826 48.2074934 2.22659826 48.2074934 1 56 C0.67 56 0.34 56 0 56 C-1.68971428 46.79221185 -2.30973068 37.91532903 -2.25 28.5625 C-2.25773438 27.35529297 -2.26546875 26.14808594 -2.2734375 24.90429688 C-2.25527351 16.41717377 -1.40594048 8.36438505 0 0 Z " fill="#383738" transform="translate(170,285)"/>
<path d="M0 0 C2.57529638 2.57529638 2.25710986 3.59429995 2.265625 7.171875 C2.26949219 8.22318604 2.27335937 9.27449707 2.27734375 10.35766602 C2.26832031 11.47713623 2.25929688 12.59660645 2.25 13.75 C2.24613281 14.87913818 2.24226563 16.00827637 2.23828125 17.17163086 C2.15459422 25.27125725 1.59430277 33.042721 0 41 C-0.33 41 -0.66 41 -1 41 C-2.1138431 36.60704584 -2.05981524 32.3833474 -1.9140625 27.890625 C-1.88220352 26.73950226 -1.88220352 26.73950226 -1.84970093 25.56512451 C-1.80362021 23.95137499 -1.75470807 22.33770411 -1.703125 20.72412109 C-1.62483042 18.24462974 -1.55789846 15.76500961 -1.4921875 13.28515625 C-1.44598776 11.71612581 -1.39913585 10.1471144 -1.3515625 8.578125 C-1.33171295 7.83338928 -1.3118634 7.08865356 -1.29141235 6.3213501 C-1.11516653 1.11516653 -1.11516653 1.11516653 0 0 Z " fill="#3F3D3F" transform="translate(456,299)"/>
<path d="M0 0 C0 0.99 0 1.98 0 3 C-0.54785156 2.82984375 -1.09570312 2.6596875 -1.66015625 2.484375 C-13.65910404 -1.18359603 -25.53349316 -4.40226894 -38 -6 C-38 -6.33 -38 -6.66 -38 -7 C-23.93650819 -9.3439153 -12.96325844 -5.50133767 0 0 Z " fill="#393739" transform="translate(363,194)"/>
<path d="M0 0 C9.40455436 5.99104944 24.38205866 17.14617599 28 28 C25 28 25 28 23.640625 26.76586914 C23.18171875 26.19473389 22.7228125 25.62359863 22.25 25.03515625 C21.72905762 24.40383789 21.20811523 23.77251953 20.67138672 23.12207031 C20.1198291 22.44241211 19.56827148 21.76275391 19 21.0625 C14.13981649 15.24344879 9.27431563 10.35244342 3.2421875 5.734375 C1.33051721 4.2556614 -0.34393455 2.75348106 -2 1 C-1.34 0.67 -0.68 0.34 0 0 Z " fill="#323032" transform="translate(388,209)"/>
<path d="M0 0 C2.42248355 3.63372533 2.17281207 6.12080842 1.9765625 10.29296875 C1.95153656 10.99899734 1.92651062 11.70502594 1.90072632 12.43244934 C1.81863741 14.68462949 1.72200748 16.93591791 1.625 19.1875 C1.56674891 20.71545852 1.50944586 22.24345349 1.453125 23.77148438 C1.3130757 27.51483461 1.15998394 31.25745088 1 35 C-2.67438544 29.48842184 -2.18306979 24.12459872 -2.1875 17.6875 C-2.19974609 16.76259766 -2.21199219 15.83769531 -2.22460938 14.88476562 C-2.23605172 9.51830624 -1.77047586 5.07349801 0 0 Z " fill="#353335" transform="translate(321,307)"/>
<path d="M0 0 C3.12446515 1.96187347 5.68737488 3.68311423 8.29296875 6.32421875 C11.22965749 9.22700632 14.32349599 11.66017851 17.625 14.125 C24.48214286 19.26785714 24.48214286 19.26785714 27 22 C26.01 22.33 25.02 22.66 24 23 C17.20296686 18.95794587 11.12794691 13.39115879 5.25 8.125 C4.7247876 7.66125977 4.1995752 7.19751953 3.65844727 6.71972656 C2.37771171 5.54319446 1.18064816 4.27694216 0 3 C0 2.01 0 1.02 0 0 Z " fill="#312F31" transform="translate(207,410)"/>
<path d="M0 0 C3.26232083 3.15708468 6.26858044 6.44976142 9.25 9.875 C13.41994154 14.55654781 17.90658383 18.36356576 23 22 C22.01 22.66 21.02 23.32 20 24 C17.5 22.1875 17.5 22.1875 15 20 C15 19.01 15 18.02 15 17 C14.443125 16.95875 13.88625 16.9175 13.3125 16.875 C10.42677631 15.78310455 9.15468746 14.01399493 7.296875 11.6171875 C5.8554442 9.7529477 5.8554442 9.7529477 3.3125 7.375 C1.2604605 5.26749997 0.09648952 3.69138336 -1 1 C-0.67 0.67 -0.34 0.34 0 0 Z " fill="#413F41" transform="translate(212,389)"/>
<path d="M0 0 C3.56186135 5.34279203 3.51470787 10.72240218 3 17 C1.86823951 22.350897 0.40839409 26.50368745 -4 30 C-4 26.44953334 -3.75904303 24.89760758 -2.5 21.75 C-2.2215625 21.04359375 -1.943125 20.3371875 -1.65625 19.609375 C-1.33140625 18.81273437 -1.33140625 18.81273437 -1 18 C-0.34 18 0.32 18 1 18 C0.44374807 11.49454637 0.44374807 11.49454637 -0.625 5.0625 C-1 3 -1 3 0 0 Z " fill="#4C4A4C" transform="translate(311,318)"/>
<path d="M0 0 C4.80043921 1.62872045 7.10526401 3.88056801 10 8 C9.34 8 8.68 8 8 8 C7.67 8.66 7.34 9.32 7 10 C6.360625 9.21625 5.72125 8.4325 5.0625 7.625 C1.62372417 4.19596575 -2.26506674 3.41944894 -7 3 C-9.44407975 3.12510829 -11.59512701 3.4883249 -14 4 C-14 3.01 -14 2.02 -14 1 C-9.83626979 -1.0818651 -4.54581641 -0.32725118 0 0 Z " fill="#4B494B" transform="translate(359,300)"/>
<path d="M0 0 C0.12375 0.639375 0.2475 1.27875 0.375 1.9375 C0.684375 2.9584375 0.684375 2.9584375 1 4 C1.66 4.33 2.32 4.66 3 5 C2.67 6.65 2.34 8.3 2 10 C1.34 10 0.68 10 0 10 C0.19207031 10.56332031 0.38414062 11.12664062 0.58203125 11.70703125 C1.08862272 14.4861826 0.61235688 16.03565918 -0.3125 18.6875 C-0.57675781 19.47511719 -0.84101563 20.26273437 -1.11328125 21.07421875 C-2 23 -2 23 -4 24 C-4.65213292 26.02463255 -4.65213292 26.02463255 -5 28 C-5.66 28 -6.32 28 -7 28 C-6.82984375 27.40316406 -6.6596875 26.80632812 -6.484375 26.19140625 C-4.06225075 17.52071678 -2.02536917 8.7697457 0 0 Z " fill="#424042" transform="translate(437,332)"/>
<path d="M0 0 C2.44799863 2.44799863 3.02552278 4.47600116 4.125 7.75 C4.47820312 8.77609375 4.83140625 9.8021875 5.1953125 10.859375 C6.01293679 14.05049115 6.09817049 16.72297549 6 20 C6.185625 20.680625 6.37125 21.36125 6.5625 22.0625 C7.13360672 24.59168692 6.62202951 26.51188197 6 29 C5.67 29 5.34 29 5 29 C4.18600073 25.60452426 3.3740662 22.20855803 2.5625 18.8125 C2.33240234 17.85279297 2.10230469 16.89308594 1.86523438 15.90429688 C1.64287109 14.97294922 1.42050781 14.04160156 1.19140625 13.08203125 C0.98717041 12.22843018 0.78293457 11.3748291 0.57250977 10.49536133 C0.38358154 9.67189209 0.19465332 8.84842285 0 8 C-0.21019775 7.13205811 -0.42039551 6.26411621 -0.63696289 5.36987305 C-1 3 -1 3 0 0 Z " fill="#272527" transform="translate(432,265)"/>
<path d="M0 0 C-1.6875 1.125 -1.6875 1.125 -4 2 C-5.68647695 1.38516854 -7.35094698 0.7091166 -9 0 C-11.42992135 -0.28335716 -13.8699502 -0.48803459 -16.3125 -0.625 C-18.19388672 -0.73714844 -18.19388672 -0.73714844 -20.11328125 -0.8515625 C-21.06589844 -0.90054687 -22.01851563 -0.94953125 -23 -1 C-23 -0.34 -23 0.32 -23 1 C-25.64 0.67 -28.28 0.34 -31 0 C-22.1418796 -5.9054136 -9.41384553 -3.64406924 0 0 Z " fill="#4D4C4D" transform="translate(370,290)"/>
<path d="M0 0 C4.28666736 -0.07462728 8.57298207 -0.12882508 12.86010742 -0.16479492 C14.31590368 -0.17980313 15.77165532 -0.20021633 17.22729492 -0.22631836 C19.33002789 -0.26305676 21.43215885 -0.2798056 23.53515625 -0.29296875 C24.797229 -0.3086792 26.05930176 -0.32438965 27.35961914 -0.34057617 C31.5613955 0.05252141 34.23455181 1.16076418 38 3 C38 4.32 38 5.64 38 7 C35.50638429 5.79618552 33.31856917 4.54571278 31 3 C26.98211685 2.1343358 23.04624323 1.83156548 18.9453125 1.68359375 C17.83671875 1.64169922 16.728125 1.59980469 15.5859375 1.55664062 C14.44382812 1.51732422 13.30171875 1.47800781 12.125 1.4375 C10.9596875 1.39431641 9.794375 1.35113281 8.59375 1.30664062 C5.72927375 1.20098371 2.86471679 1.09888201 0 1 C0 0.67 0 0.34 0 0 Z " fill="#343234" transform="translate(256,316)"/>
<path d="M0 0 C5.06316683 -0.15639125 9.50398438 0.37233929 14.4375 1.5 C15.67371094 1.7784375 16.90992188 2.056875 18.18359375 2.34375 C19.57771484 2.66859375 19.57771484 2.66859375 21 3 C17.33419931 5.44386713 15.99021753 5.09940952 11.6875 4.6875 C10.02267578 4.53861328 10.02267578 4.53861328 8.32421875 4.38671875 C5.19270361 4.02241793 2.10387069 3.5493992 -1 3 C-0.67 2.01 -0.34 1.02 0 0 Z " fill="#333133" transform="translate(329,169)"/>
<path d="M0 0 C1.8125 0.1875 1.8125 0.1875 4 1 C6.60800238 4.44256314 7.90416985 8.27129016 9.25390625 12.328125 C9.87895586 14.2038679 9.87895586 14.2038679 12 15 C13.1577506 18.47325181 13.06866652 21.36067448 13 25 C11.52802873 22.7920431 10.32763538 20.7729339 9.16015625 18.41796875 C8.81919922 17.73283203 8.47824219 17.04769531 8.12695312 16.34179688 C7.77568359 15.63087891 7.42441406 14.91996094 7.0625 14.1875 C6.71509766 13.48818359 6.36769531 12.78886719 6.00976562 12.06835938 C5.32752219 10.69487871 4.64602326 9.32102794 3.96533203 7.94677734 C2.65018507 5.29453104 1.3255958 2.64703612 0 0 Z " fill="#3B393B" transform="translate(418,243)"/>
<path d="M0 0 C3.61745061 0.60658178 3.98117757 0.97707299 6.5078125 4.0546875 C7.3914086 5.32037921 8.26345946 6.59419344 9.125 7.875 C9.56714844 8.51308594 10.00929687 9.15117187 10.46484375 9.80859375 C12.33871634 12.52033082 14.17158475 15.25737712 16 18 C13 18 13 18 11.1328125 16.34765625 C6.62419042 11.21624785 3.01652915 6.13457611 0 0 Z " fill="#343234" transform="translate(191,391)"/>
<path d="M0 0 C4.28508106 1.97902779 7.31168139 4.75988906 10.75 7.9375 C11.35199219 8.47568359 11.95398438 9.01386719 12.57421875 9.56835938 C14.11101477 10.98144506 15.56268812 12.48583763 17 14 C17 14.99 17 15.98 17 17 C10.7431117 12.6525708 4.99302252 7.77896125 0 2 C0 1.34 0 0.68 0 0 Z " fill="#424042" transform="translate(403,200)"/>
<path d="M0 0 C0.99 0.33 1.98 0.66 3 1 C0.19777832 4.12594404 -3.23904092 6.34493896 -6.6875 8.6875 C-7.29400391 9.10322266 -7.90050781 9.51894531 -8.52539062 9.94726562 C-10.01497948 10.96769264 -11.50722877 11.98423413 -13 13 C-13.66 12.34 -14.32 11.68 -15 11 C-12.33764653 8.07880661 -9.25733632 5.96945955 -6 3.75 C-4.4221875 2.65945312 -4.4221875 2.65945312 -2.8125 1.546875 C-1.884375 1.03640625 -0.95625 0.5259375 0 0 Z " fill="#2E2D2E" transform="translate(247,202)"/>
<path d="M0 0 C3.51528115 4.2794727 4.14588082 7.53956368 4.1875 13 C4.20167969 13.845625 4.21585937 14.69125 4.23046875 15.5625 C3.98543096 18.15408616 3.30584901 19.77024992 2 22 C1.09166031 19.27498092 0.81640015 17.37766029 0.68359375 14.55078125 C0.64169922 13.70322266 0.59980469 12.85566406 0.55664062 11.98242188 C0.51732422 11.10134766 0.47800781 10.22027344 0.4375 9.3125 C0.39431641 8.41982422 0.35113281 7.52714844 0.30664062 6.60742188 C0.20064647 4.40509892 0.09857949 2.20266527 0 0 Z " fill="#454345" transform="translate(307,276)"/>
<path d="M0 0 C1.66772461 0.07250977 1.66772461 0.07250977 3.36914062 0.14648438 C4.51962891 0.20255859 5.67011719 0.25863281 6.85546875 0.31640625 C8.61020508 0.3947168 8.61020508 0.3947168 10.40039062 0.47460938 C13.28154149 0.60396717 16.1623179 0.7389209 19.04296875 0.87890625 C19.04296875 1.20890625 19.04296875 1.53890625 19.04296875 1.87890625 C-2.64453125 3.62890625 -2.64453125 3.62890625 -10.95703125 1.87890625 C-10.95703125 1.54890625 -10.95703125 1.21890625 -10.95703125 0.87890625 C-7.19190827 -0.01927971 -3.86125672 -0.17821185 0 0 Z " fill="#3E3C3E" transform="translate(300.95703125,438.12109375)"/>
<path d="M0 0 C0 0.66 0 1.32 0 2 C-5.48675196 3.86783046 -10.22192976 4.2358396 -16 4 C-16 3.01 -16 2.02 -16 1 C-13.8973294 0.63705686 -11.79278943 0.28493028 -9.6875 -0.0625 C-8.51574219 -0.25972656 -7.34398437 -0.45695312 -6.13671875 -0.66015625 C-3 -1 -3 -1 0 0 Z " fill="#2D2B2D" transform="translate(298,354)"/>
<path d="M0 0 C0.33 0.99 0.66 1.98 1 3 C-0.38607623 4.46761013 -1.78431195 5.92374189 -3.1875 7.375 C-3.96480469 8.18710938 -4.74210938 8.99921875 -5.54296875 9.8359375 C-7.987055 11.98859852 -9.92616557 13.00632706 -13 14 C-11.54238919 10.63163511 -9.6759774 8.43494248 -7.0625 5.875 C-6.37285156 5.19179687 -5.68320313 4.50859375 -4.97265625 3.8046875 C-3 2 -3 2 0 0 Z " fill="#393839" transform="translate(218,203)"/>
<path d="M0 0 C-2.77994451 1.85329634 -4.78256551 2.68563605 -7.9375 3.625 C-8.79214844 3.88539063 -9.64679688 4.14578125 -10.52734375 4.4140625 C-13 5 -13 5 -17 5 C-17 4.01 -17 3.02 -17 2 C-5.47835991 -1.62870159 -5.47835991 -1.62870159 0 0 Z " fill="#373637" transform="translate(362,449)"/>
<path d="M0 0 C0.66 0 1.32 0 2 0 C2.25394531 0.59167969 2.50789062 1.18335938 2.76953125 1.79296875 C5.00129911 6.92324158 5.00129911 6.92324158 7.8125 11.75 C9 14 9 14 8.6875 16.8125 C8.460625 17.534375 8.23375 18.25625 8 19 C5.39645656 16.39645656 4.28519898 13.39907127 2.875 10.0625 C2.45927734 9.11213867 2.45927734 9.11213867 2.03515625 8.14257812 C0.80420986 5.25925296 0 3.16789795 0 0 Z " fill="#3E3C3E" transform="translate(176,360)"/>
<path d="M0 0 C2.7962154 5.19297145 4.54188158 10.03930262 4 16 C3.34 16.66 2.68 17.32 2 18 C-0.35001386 11.52086573 -1.38458877 6.79707213 0 0 Z " fill="#363436" transform="translate(173,342)"/>
<path d="M0 0 C5.26170694 1.41167747 8.72171358 3.74850232 13 7 C12.67 7.99 12.34 8.98 12 10 C5.565 6.04 5.565 6.04 -1 2 C-0.67 1.34 -0.34 0.68 0 0 Z " fill="#363436" transform="translate(373,200)"/>
<path d="M0 0 C0 0.66 0 1.32 0 2 C3.63 2.33 7.26 2.66 11 3 C11 3.33 11 3.66 11 4 C4.5076847 4.24397009 -1.80005314 4.16463662 -8 2 C-8.66 1.34 -9.32 0.68 -10 0 C-6.7169902 -1.6415049 -3.57454967 -0.51888624 0 0 Z " fill="#555455" transform="translate(348,357)"/>
<path d="M0 0 C3.67056937 1.47797262 5.41085783 3.47615477 7.75 6.625 C8.67039062 7.85089844 8.67039062 7.85089844 9.609375 9.1015625 C10.29773438 10.04128906 10.29773438 10.04128906 11 11 C10.34 11.66 9.68 12.32 9 13 C7.49106184 11.40423801 5.99308924 9.79810089 4.5 8.1875 C3.6646875 7.29417969 2.829375 6.40085938 1.96875 5.48046875 C0 3 0 3 0 0 Z " fill="#3A383A" transform="translate(405,225)"/>
<path d="M0 0 C3 1 3 1 3.984375 2.9609375 C4.23703125 3.75757813 4.4896875 4.55421875 4.75 5.375 C5.14445312 6.56222656 5.14445312 6.56222656 5.546875 7.7734375 C6 10 6 10 5 13 C4.34 13 3.68 13 3 13 C2.49242138 11.58603098 1.99425075 10.16868271 1.5 8.75 C1.08234375 7.56664062 1.08234375 7.56664062 0.65625 6.359375 C0 4 0 4 0 0 Z " fill="#323132" transform="translate(447,263)"/>
<path d="M0 0 C4.33034194 3.84919283 6.6560756 7.72289646 9 13 C8.34 13.66 7.68 14.32 7 15 C7 13.68 7 12.36 7 11 C6.01 10.67 5.02 10.34 4 10 C2.578125 8.22265625 2.578125 8.22265625 1.25 6.0625 C0.80140625 5.35222656 0.3528125 4.64195312 -0.109375 3.91015625 C-0.40328125 3.27980469 -0.6971875 2.64945313 -1 2 C-0.67 1.34 -0.34 0.68 0 0 Z " fill="#383638" transform="translate(429,227)"/>
<path d="M0 0 C0.99 0 1.98 0 3 0 C2.52389341 4.99911924 0.96837781 7.97832683 -2 12 C-2.66 11.67 -3.32 11.34 -4 11 C-3.71125 10.29875 -3.4225 9.5975 -3.125 8.875 C-1.97866412 5.94547497 -0.97374346 2.99078347 0 0 Z " fill="#373637" transform="translate(310,336)"/>
<path d="M0 0 C5.19453651 1.41669178 8.66182883 4.92108191 12 9 C12 9.66 12 10.32 12 11 C11.01 11 10.02 11 9 11 C7.72906867 9.53354077 6.46357667 8.06009874 5.2734375 6.52734375 C3.73540646 4.68265008 1.92166548 3.42345591 0 2 C0 1.34 0 0.68 0 0 Z " fill="#3A383A" transform="translate(370,291)"/>
<path d="M0 0 C5.26159459 -0.64165788 7.68592849 0.79422999 11.6796875 3.90625 C12.11539062 4.2671875 12.55109375 4.628125 13 5 C12.34 6.32 11.68 7.64 11 9 C10.67 7.68 10.34 6.36 10 5 C6.7 4.34 3.4 3.68 0 3 C0 2.01 0 1.02 0 0 Z " fill="#454345" transform="translate(280,279)"/>
<path d="M0 0 C0.66 0.66 1.32 1.32 2 2 C-6.261959 8.70387244 -6.261959 8.70387244 -11 9 C-7.56638098 5.36440339 -4.2026393 2.63886654 0 0 Z " fill="#424042" transform="translate(377,350)"/>
<path d="M0 0 C0.7940625 -0.01417969 1.588125 -0.02835937 2.40625 -0.04296875 C4.5 0.1875 4.5 0.1875 6.5 2.1875 C2.21 2.8475 -2.08 3.5075 -6.5 4.1875 C-6.5 3.1975 -6.5 2.2075 -6.5 1.1875 C-4.14653604 0.01076802 -2.6193967 0.02126134 0 0 Z " fill="#2E2C2E" transform="translate(351.5,299.8125)"/>
<path d="M0 0 C0 0.99 0 1.98 0 3 C-4.8333472 3.08333357 -9.23692563 2.95261487 -14 2 C-14 1.67 -14 1.34 -14 1 C-9.32798795 -0.20568053 -4.78503708 -0.09382426 0 0 Z " fill="#3A383A" transform="translate(300,454)"/>
<path d="M0 0 C1.125 3.75 1.125 3.75 0 6 C-0.66 6 -1.32 6 -2 6 C-2 6.66 -2 7.32 -2 8 C-3.65 8.66 -5.3 9.32 -7 10 C-7 9.34 -7 8.68 -7 8 C-8.32 7.67 -9.64 7.34 -11 7 C-9.9275 6.773125 -8.855 6.54625 -7.75 6.3125 C-3.62781299 4.86973455 -2.35585477 3.58089925 0 0 Z " fill="#464446" transform="translate(367,338)"/>
<path d="M0 0 C-0.33 0.66 -0.66 1.32 -1 2 C-6.98833405 3.53718396 -12.96723499 2.86182357 -19 2 C-19 1.67 -19 1.34 -19 1 C-16.58440932 0.63645961 -14.16805703 0.28389449 -11.75 -0.0625 C-11.06808594 -0.16626953 -10.38617188 -0.27003906 -9.68359375 -0.37695312 C-6.2150075 -0.86524925 -3.33088887 -1.22762141 0 0 Z " fill="#615F61" transform="translate(341,437)"/>
<path d="M0 0 C1.1484375 1.671875 1.1484375 1.671875 2 4 C1.1015625 6.578125 1.1015625 6.578125 -0.375 9.25 C-0.85710937 10.14203125 -1.33921875 11.0340625 -1.8359375 11.953125 C-2.22007812 12.62859375 -2.60421875 13.3040625 -3 14 C-3.33 14 -3.66 14 -4 14 C-4.68041782 8.72676192 -2.24786337 4.60611289 0 0 Z " fill="#3B393B" transform="translate(444,368)"/>
<path d="M0 0 C5.94 0 11.88 0 18 0 C17.34 2.31 16.68 4.62 16 7 C15.67 7 15.34 7 15 7 C14.67 5.35 14.34 3.7 14 2 C7.07 1.505 7.07 1.505 0 1 C0 0.67 0 0.34 0 0 Z " fill="#454345" transform="translate(369,338)"/>
<path d="M0 0 C5.01113235 1.4317521 6.94469549 3.98445693 10 8 C9.01 9.485 9.01 9.485 8 11 C7.4225 10.071875 6.845 9.14375 6.25 8.1875 C4.26014978 5.36854553 2.73611987 3.95437133 0 2 C0 1.34 0 0.68 0 0 Z " fill="#3D3B3D" transform="translate(301,309)"/>
<path d="M0 0 C3.17462943 2.40242227 5.85751741 4.61713276 8 8 C8 8.66 8 9.32 8 10 C3.7257442 8.4169423 1.73468206 5.49431596 -1 2 C-0.67 1.34 -0.34 0.68 0 0 Z " fill="#3C3A3C" transform="translate(421,217)"/>
<path d="M0 0 C0 0.66 0 1.32 0 2 C-1.32 2.33 -2.64 2.66 -4 3 C-4 3.66 -4 4.32 -4 5 C-6.3125 5.625 -6.3125 5.625 -9 6 C-9.99 5.34 -10.98 4.68 -12 4 C-10.3767313 3.3291288 -8.75132422 2.66342971 -7.125 2 C-6.22007812 1.62875 -5.31515625 1.2575 -4.3828125 0.875 C-2 0 -2 0 0 0 Z " fill="#434243" transform="translate(367,427)"/>
<path d="M0 0 C0.99 0.33 1.98 0.66 3 1 C1.02 3.97 -0.96 6.94 -3 10 C-3.66 9.01 -4.32 8.02 -5 7 C-3.35 4.69 -1.7 2.38 0 0 Z " fill="#3F3E3F" transform="translate(432,391)"/>
<path d="M0 0 C0.8353125 0.37125 0.8353125 0.37125 1.6875 0.75 C0.39784824 2.12562854 -0.93939293 3.45766393 -2.3125 4.75 C-2.9725 4.75 -3.6325 4.75 -4.3125 4.75 C-4.3125 5.41 -4.3125 6.07 -4.3125 6.75 C-4.9725 6.75 -5.6325 6.75 -6.3125 6.75 C-6.6425 5.76 -6.9725 4.77 -7.3125 3.75 C-2.88173077 -0.31153846 -2.88173077 -0.31153846 0 0 Z " fill="#474547" transform="translate(305.3125,302.25)"/>
<path d="M0 0 C-0.99 0.495 -0.99 0.495 -2 1 C-2 1.66 -2 2.32 -2 3 C-6.29 2.67 -10.58 2.34 -15 2 C-15 1.67 -15 1.34 -15 1 C-9.91913204 0.15318867 -5.15171623 -0.09038099 0 0 Z " fill="#4A484A" transform="translate(340,186)"/>
<path d="M0 0 C-5.94 0.495 -5.94 0.495 -12 1 C-12 0.01 -12 -0.98 -12 -2 C-6.87296272 -3.24711718 -4.79265093 -2.39632547 0 0 Z " fill="#454345" transform="translate(300,188)"/>
<path d="M0 0 C2.40072955 2.88087546 4.47291037 5.56404834 6 9 C5.01 9 4.02 9 3 9 C0.75 6.75 0.75 6.75 -1 4 C-0.75 1.6875 -0.75 1.6875 0 0 Z " fill="#3C3B3C" transform="translate(204,377)"/>
<path d="M0 0 C4.03520597 1.58962659 8.01811282 3.28232318 12 5 C10.1875 6.0625 10.1875 6.0625 8 7 C4.95139986 5.98379995 4.13333078 5.22608429 2 3 C1.34 2.67 0.68 2.34 0 2 C0 1.34 0 0.68 0 0 Z " fill="#403E40" transform="translate(251,423)"/>
<path d="M0 0 C2.18975773 3.28463659 2.99806563 6.20696275 4 10 C3.01 10 2.02 10 1 10 C-0.80411967 7.24075815 -1.0127245 6.11027897 -0.625 2.75 C-0.41875 1.8425 -0.2125 0.935 0 0 Z " fill="#3F3D3F" transform="translate(193,353)"/>
<path d="M0 0 C1.3303125 0.7115625 1.3303125 0.7115625 2.6875 1.4375 C5.57042756 2.79737149 7.87610623 3.54060386 11 4 C8.73538929 5.37494222 7.54345306 6.07991957 4.875 5.6875 C3 5 3 5 1 4 C1 3.34 1 2.68 1 2 C0.34 1.67 -0.32 1.34 -1 1 C-0.67 0.67 -0.34 0.34 0 0 Z " fill="#3F3E3F" transform="translate(341,341)"/>
<path d="M0 0 C0.99 0 1.98 0 3 0 C2.67 4.29 2.34 8.58 2 13 C1.67 13 1.34 13 1 13 C0.67 8.71 0.34 4.42 0 0 Z " fill="#525052" transform="translate(186,288)"/>
<path d="M0 0 C3.45925163 1.2491742 6.14693203 2.67527795 9 5 C7.375 5.75 7.375 5.75 5 6 C1.75 4.0625 1.75 4.0625 -1 2 C-0.67 1.34 -0.34 0.68 0 0 Z " fill="#373637" transform="translate(235,433)"/>
<path d="M0 0 C4.37859255 0.50522222 6.81651224 3.17827222 10 6 C9.01 6.66 8.02 7.32 7 8 C4.5 6.1875 4.5 6.1875 2 4 C2 3.01 2 2.02 2 1 C1.34 0.67 0.68 0.34 0 0 Z " fill="#464546" transform="translate(225,405)"/>
<path d="M0 0 C1.32 0.33 2.64 0.66 4 1 C5.75 4.0625 5.75 4.0625 7 7 C6.34 7.66 5.68 8.32 5 9 C3.35 6.03 1.7 3.06 0 0 Z " fill="#3C3A3C" transform="translate(191,391)"/>
<path d="M0 0 C0.99 0 1.98 0 3 0 C2.01 2.97 1.02 5.94 0 9 C-0.66 8.34 -1.32 7.68 -2 7 C-1.6730244 4.38419521 -1.17960932 2.35921863 0 0 Z " fill="#373637" transform="translate(196,258)"/>
<path d="M0 0 C0.99 0.33 1.98 0.66 3 1 C4.1577506 4.47325181 4.06866652 7.36067448 4 11 C0 5 0 5 0 0 Z " fill="#414041" transform="translate(427,257)"/>
<path d="M0 0 C2.31 0 4.62 0 7 0 C7.33 0.99 7.66 1.98 8 3 C5.36 3 2.72 3 0 3 C0 2.01 0 1.02 0 0 Z " fill="#272527" transform="translate(338,187)"/>
<path d="M0 0 C2.97 0.99 5.94 1.98 9 3 C7.68 3.99 6.36 4.98 5 6 C3.2925002 4.71937515 1.62626404 3.38232443 0 2 C0 1.34 0 0.68 0 0 Z " fill="#363436" transform="translate(370,180)"/>
<path d="M0 0 C-0.639375 0.28875 -1.27875 0.5775 -1.9375 0.875 C-4.15206079 1.82823451 -4.15206079 1.82823451 -5 4 C-7.0625 4.625 -7.0625 4.625 -9 5 C-9 4.34 -9 3.68 -9 3 C-9.99 2.67 -10.98 2.34 -12 2 C-10.37787941 1.47026689 -8.75218416 0.95146893 -7.125 0.4375 C-6.22007812 0.14746094 -5.31515625 -0.14257812 -4.3828125 -0.44140625 C-2 -1 -2 -1 0 0 Z " fill="#575557" transform="translate(354,433)"/>
<path d="M0 0 C0.99 0.33 1.98 0.66 3 1 C1.35 2.98 -0.3 4.96 -2 7 C-2.66 6.67 -3.32 6.34 -4 6 C-2.25 1.125 -2.25 1.125 0 0 Z " fill="#3A393A" transform="translate(425,401)"/>
<path d="M0 0 C2.50298434 2.93828597 3.46930939 5.17902761 4 9 C3.01 9 2.02 9 1 9 C0.67 6.03 0.34 3.06 0 0 Z " fill="#3E3D3E" transform="translate(382,302)"/>
<path d="M0 0 C0.66 0.66 1.32 1.32 2 2 C0.68 3.65 -0.64 5.3 -2 7 C-3.32 6.67 -4.64 6.34 -6 6 C-4 4 -2 2 0 0 Z " fill="#2F2E2F" transform="translate(331,294)"/>
<path d="M0 0 C0.33 0 0.66 0 1 0 C1 1.65 1 3.3 1 5 C0.34 5 -0.32 5 -1 5 C-1 5.99 -1 6.98 -1 8 C-2.32 7.67 -3.64 7.34 -5 7 C-4.19152271 5.83054208 -3.37810888 4.66449539 -2.5625 3.5 C-2.11003906 2.8503125 -1.65757812 2.200625 -1.19140625 1.53125 C-0.79824219 1.0259375 -0.40507812 0.520625 0 0 Z " fill="#393739" transform="translate(200,221)"/>
<path d="M0 0 C4.95 0.99 4.95 0.99 10 2 C8 4 8 4 5.375 4.125 C4.59125 4.08375 3.8075 4.0425 3 4 C3 3.34 3 2.68 3 2 C2.01 2 1.02 2 0 2 C0 1.34 0 0.68 0 0 Z " fill="#414041" transform="translate(350,173)"/>
<path d="M0 0 C4.95 0.99 4.95 0.99 10 2 C9.01 2.99 8.02 3.98 7 5 C4.4375 4.9375 4.4375 4.9375 2 4 C1.34 2.68 0.68 1.36 0 0 Z " fill="#424142" transform="translate(274,433)"/>
<path d="M0 0 C2 1 2 1 4 4 C3.9765625 6.26171875 3.9765625 6.26171875 3.625 8.6875 C3.51414062 9.49574219 3.40328125 10.30398438 3.2890625 11.13671875 C3.19367188 11.75160156 3.09828125 12.36648438 3 13 C2.67 13 2.34 13 2 13 C1.34 8.71 0.68 4.42 0 0 Z " fill="#605E60" transform="translate(435,281)"/>
<path d="M0 0 C0.99 0.33 1.98 0.66 3 1 C2.01 1.66 1.02 2.32 0 3 C0 2.01 0 1.02 0 0 Z " fill="#030103" transform="translate(207,215)"/>
<path d="M0 0 C3.465 1.98 3.465 1.98 7 4 C6.01 4.66 5.02 5.32 4 6 C2.02 4.68 0.04 3.36 -2 2 C-1.34 1.34 -0.68 0.68 0 0 Z " fill="#373537" transform="translate(227,427)"/>
<path d="M0 0 C3.96 1.98 3.96 1.98 8 4 C7.01 4.66 6.02 5.32 5 6 C3.02 5.01 1.04 4.02 -1 3 C-0.67 2.01 -0.34 1.02 0 0 Z " fill="#3A383A" transform="translate(243,418)"/>
<path d="M0 0 C0.66 0.99 1.32 1.98 2 3 C-0.3125 5.0625 -0.3125 5.0625 -3 7 C-3.99 6.67 -4.98 6.34 -6 6 C-4.02 4.02 -2.04 2.04 0 0 Z " fill="#403E40" transform="translate(399,404)"/>
<path d="M0 0 C1.2380014 3.57644848 0.74926071 6.33694766 0 10 C-0.99 10 -1.98 10 -3 10 C-2.39009109 6.44219804 -1.4216319 3.3171411 0 0 Z " fill="#424042" transform="translate(179,256)"/>
<path d="M0 0 C0.66 0.99 1.32 1.98 2 3 C0.6875 5.5 0.6875 5.5 -1 8 C-1.99 8 -2.98 8 -4 8 C-2.87548273 5.0280615 -1.77706209 2.66559313 0 0 Z " fill="#383638" transform="translate(194,229)"/>
<path d="M0 0 C0.99 0.66 1.98 1.32 3 2 C0.69 3.32 -1.62 4.64 -4 6 C-4.33 5.34 -4.66 4.68 -5 4 C-3.36587557 2.29159719 -2.13093906 1.06546953 0 0 Z " fill="#3D3B3D" transform="translate(237,209)"/>
<path d="M0 0 C2.31 0.33 4.62 0.66 7 1 C3.73454239 2.88391785 0.71888239 3.49287967 -3 4 C-3 3.34 -3 2.68 -3 2 C-2.01 2 -1.02 2 0 2 C0 1.34 0 0.68 0 0 Z " fill="#484648" transform="translate(276,189)"/>
<path d="M0 0 C3.55780196 0.60990891 6.6828589 1.5783681 10 3 C10 3.33 10 3.66 10 4 C7.69 4 5.38 4 3 4 C3 3.34 3 2.68 3 2 C2.01 2 1.02 2 0 2 C0 1.34 0 0.68 0 0 Z " fill="#4A484A" transform="translate(360,176)"/>
<path d="M0 0 C2.97 0.33 5.94 0.66 9 1 C5.5647952 3.29013653 4.014669 3.17842973 0 3 C0 2.01 0 1.02 0 0 Z " fill="#403E40" transform="translate(341,171)"/>
<path d="M0 0 C0.66 0.66 1.32 1.32 2 2 C-0.97 4.475 -0.97 4.475 -4 7 C-4.66 6.34 -5.32 5.68 -6 5 C-4.02 3.35 -2.04 1.7 0 0 Z " fill="#393739" transform="translate(410,417)"/>
<path d="M0 0 C1.32 0.33 2.64 0.66 4 1 C5.25 3.5625 5.25 3.5625 6 6 C5.34 6.66 4.68 7.32 4 8 C2.68 5.36 1.36 2.72 0 0 Z " fill="#424042" transform="translate(186,383)"/>
<path d="M0 0 C2.29633824 3.44450737 2.54016485 5.93812283 3 10 C2.01 10 1.02 10 0 10 C0 6.7 0 3.4 0 0 Z " fill="#525052" transform="translate(190,343)"/>
<path d="M0 0 C1.03159626 3.09478879 0.97482862 4.52631393 0.5625 7.6875 C0.46066406 8.49574219 0.35882813 9.30398438 0.25390625 10.13671875 C0.17011719 10.75160156 0.08632812 11.36648438 0 12 C-0.33 12 -0.66 12 -1 12 C-1.22162329 10.37675914 -1.42689803 8.751279 -1.625 7.125 C-1.74101562 6.22007812 -1.85703125 5.31515625 -1.9765625 4.3828125 C-1.98429688 3.59648437 -1.99203125 2.81015625 -2 2 C-1.34 1.34 -0.68 0.68 0 0 Z " fill="#535253" transform="translate(171,329)"/>
<path d="M0 0 C0.66 0.66 1.32 1.32 2 2 C1.625 5.625 1.625 5.625 1 9 C0.34 8.34 -0.32 7.68 -1 7 C-0.625 3.375 -0.625 3.375 0 0 Z " fill="#353435" transform="translate(294,328)"/>
<path d="M0 0 C0.33 0.66 0.66 1.32 1 2 C-0.65 3.65 -2.3 5.3 -4 7 C-4.66 6.34 -5.32 5.68 -6 5 C-4.02 3.35 -2.04 1.7 0 0 Z " fill="#413F41" transform="translate(391,411)"/>
<path d="M0 0 C0.66 0 1.32 0 2 0 C3.38938077 1.96147874 4.7260411 3.96166576 6 6 C5.01 6 4.02 6 3 6 C0.8125 3.5 0.8125 3.5 -1 1 C-0.67 0.67 -0.34 0.34 0 0 Z " fill="#2A282A" transform="translate(220,399)"/>
<path d="M0 0 C0.33 0 0.66 0 1 0 C1.125 5.75 1.125 5.75 0 8 C-0.99 8 -1.98 8 -3 8 C-1.125 2.25 -1.125 2.25 0 0 Z " fill="#4E4C4E" transform="translate(426,367)"/>
<path d="M0 0 C0.33 0 0.66 0 1 0 C1.125 5.75 1.125 5.75 0 8 C-0.99 8 -1.98 8 -3 8 C-1.125 2.25 -1.125 2.25 0 0 Z " fill="#4B4A4B" transform="translate(184,245)"/>
<path d="M0 0 C2.4375 0.75 2.4375 0.75 5 2 C5.8125 4.125 5.8125 4.125 6 6 C4.02 5.01 2.04 4.02 0 3 C0 2.01 0 1.02 0 0 Z " fill="#3C3B3C" transform="translate(380,204)"/>
<path d="M0 0 C0 0.66 0 1.32 0 2 C-0.99 2 -1.98 2 -3 2 C-3.33 2.99 -3.66 3.98 -4 5 C-4.99 5.33 -5.98 5.66 -7 6 C-7.66 5.34 -8.32 4.68 -9 4 C-2.25 0 -2.25 0 0 0 Z " fill="#403E40" transform="translate(249,183)"/>
<path d="M0 0 C2.97 0.33 5.94 0.66 9 1 C9 1.33 9 1.66 9 2 C4.545 2.495 4.545 2.495 0 3 C0 2.01 0 1.02 0 0 Z " fill="#595759" transform="translate(285,436)"/>
<path d="M0 0 C0 0.66 0 1.32 0 2 C-2.97 2.66 -5.94 3.32 -9 4 C-7.04565548 0.09131097 -4.13449517 0 0 0 Z " fill="#131113" transform="translate(358,432)"/>
<path d="M0 0 C0.33 0 0.66 0 1 0 C1 1.98 1 3.96 1 6 C-0.32 6.33 -1.64 6.66 -3 7 C-1.125 2.25 -1.125 2.25 0 0 Z " fill="#3A383A" transform="translate(422,375)"/>
<path d="M0 0 C0.763125 0.20625 1.52625 0.4125 2.3125 0.625 C2.3125 1.285 2.3125 1.945 2.3125 2.625 C-0.3275 2.295 -2.9675 1.965 -5.6875 1.625 C-2.6875 -0.375 -2.6875 -0.375 0 0 Z " fill="#393739" transform="translate(344.6875,288.375)"/>
<path d="M0 0 C0.99 0 1.98 0 3 0 C3.66 1.98 4.32 3.96 5 6 C2.5 4.6875 2.5 4.6875 0 3 C0 2.01 0 1.02 0 0 Z " fill="#434143" transform="translate(443,254)"/>
</svg>
